<svg xmlns="http://www.w3.org/2000/svg" viewBox="0 0 512 512" fill="none">
  <defs>
    <linearGradient id="bg" x1="64" y1="40" x2="460" y2="472" gradientUnits="userSpaceOnUse">
      <stop offset="0" stop-color="#0b0f1d" />
      <stop offset="1" stop-color="#05060f" />
    </linearGradient>
    <linearGradient id="frame" x1="96" y1="88" x2="416" y2="424" gradientUnits="userSpaceOnUse">
      <stop offset="0" stop-color="#22d3ee" />
      <stop offset="1" stop-color="#f472b6" />
    </linearGradient>
    <linearGradient id="bar" x1="200" y1="140" x2="340" y2="340" gradientUnits="userSpaceOnUse">
      <stop offset="0" stop-color="#22d3ee" />
      <stop offset="1" stop-color="#f472b6" />
    </linearGradient>
  </defs>

  <rect width="512" height="512" rx="48" fill="url(#bg)" />
  <rect x="20" y="20" width="472" height="472" rx="40" stroke="#11172a" stroke-width="2" />

  <rect x="76" y="76" width="360" height="360" rx="36" stroke="url(#frame)" stroke-width="10" />
  <rect x="84" y="84" width="344" height="344" rx="32" stroke="#1b2238" stroke-width="4" />
  <rect x="92" y="92" width="328" height="328" rx="28" stroke="#22d3ee" stroke-width="2" opacity="0.35" />

  <g opacity="0.25">
    <path d="M116 156H396" stroke="#222a44" stroke-width="2" />
    <path d="M116 204H396" stroke="#222a44" stroke-width="2" />
    <path d="M116 252H396" stroke="#222a44" stroke-width="2" />
    <path d="M116 300H396" stroke="#222a44" stroke-width="2" />
    <path d="M116 348H396" stroke="#222a44" stroke-width="2" />
  </g>

  <g>
    <rect x="160" y="248" width="36" height="116" rx="6" fill="url(#bar)" />
    <rect x="214" y="200" width="36" height="164" rx="6" fill="url(#bar)" />
    <rect x="268" y="168" width="36" height="196" rx="6" fill="url(#bar)" />
    <rect x="322" y="220" width="36" height="144" rx="6" fill="url(#bar)" />

    <rect x="166" y="256" width="24" height="8" rx="4" fill="#bff6ff" opacity="0.7" />
    <rect x="220" y="208" width="24" height="8" rx="4" fill="#bff6ff" opacity="0.7" />
    <rect x="274" y="176" width="24" height="8" rx="4" fill="#bff6ff" opacity="0.7" />
    <rect x="328" y="228" width="24" height="8" rx="4" fill="#bff6ff" opacity="0.7" />

    <rect x="160" y="248" width="36" height="116" rx="6" stroke="#a7f3ff" stroke-width="2" />
    <rect x="214" y="200" width="36" height="164" rx="6" stroke="#a7f3ff" stroke-width="2" />
    <rect x="268" y="168" width="36" height="196" rx="6" stroke="#ff9fd6" stroke-width="2" />
    <rect x="322" y="220" width="36" height="144" rx="6" stroke="#ff9fd6" stroke-width="2" />
  </g>

  <path
    d="M140 392L196 336L256 380L316 336L372 392"
    stroke="#1a2137"
    stroke-width="6"
    stroke-linecap="square"
    stroke-linejoin="miter"
  />
  <path d="M146 388L188 346" stroke="#22d3ee" stroke-width="4" stroke-linecap="square" />
  <path d="M324 346L366 388" stroke="#f472b6" stroke-width="4" stroke-linecap="square" />
</svg>
